<?xml version="1.0" standalone="no"?><!DOCTYPE svg PUBLIC "-//W3C//DTD SVG 1.1//EN" "http://www.w3.org/Graphics/SVG/1.1/DTD/svg11.dtd"><svg t="1642149499880" class="icon" viewBox="0 0 2148 1024" version="1.1" xmlns="http://www.w3.org/2000/svg" p-id="6122" xmlns:xlink="http://www.w3.org/1999/xlink" width="419.53125" height="200"><defs><style type="text/css"></style></defs><path d="M1623.291803 990.42623H33.57377V33.57377h1759.265574" fill="#FAEDD6" p-id="6123"></path><path d="M1623.291803 990.42623H33.57377v-137.65246h1624.970492zM1759.265574 171.22623H33.57377V33.57377h1759.265574zM572.432787 370.990164c-40.288525-40.288525-104.078689-40.288525-144.367213 0l-23.50164 23.501639-23.501639-23.501639c-40.288525-40.288525-104.078689-40.288525-144.367213 0-40.288525 40.288525-40.288525 104.078689 0 144.367213l167.868852 169.547541 167.868853-169.547541c40.288525-38.609836 40.288525-104.078689 0-144.367213z" fill="#FA004B" p-id="6124"></path><path d="M473.390164 852.77377l-135.973771 135.973771H67.147541l134.295082-135.973771zM1013.927869 852.77377l-134.295082 135.973771H607.685246l135.97377-135.973771zM1556.144262 852.77377l-135.97377 135.973771H1149.901639l135.973771-135.973771zM473.390164 167.868852l-135.973771-132.616393H67.147541l134.295082 132.616393zM1013.927869 167.868852l-134.295082-132.616393H607.685246l135.97377 132.616393zM1556.144262 167.868852l-135.97377-132.616393H1149.901639l135.973771 132.616393z" fill="#FFFFFF" p-id="6125"></path><path d="M1846.557377 5.036066h302.163934v65.468852h-302.163934zM1640.078689 137.652459h268.590163v65.468852h-268.590163zM1574.609836 273.62623h166.190164v65.468852h-166.190164zM1640.078689 411.278689h302.163934v65.468852h-302.163934zM1435.278689 552.288525h240.052459v65.468852H1435.278689zM1740.8 552.288525H2148.721311v65.468852h-407.921311zM1470.531148 684.904918h438.137704v65.468852H1470.531148zM1640.078689 820.878689h100.721311v65.468852h-100.721311zM1811.304918 820.878689H2048v67.147541h-236.695082zM404.563934 731.908197L214.872131 538.859016c-52.039344-52.039344-52.039344-139.331148 0-191.370491 52.039344-52.039344 137.652459-52.039344 189.691803 0 25.180328-25.180328 58.754098-40.288525 95.685246-40.288525s68.82623 13.429508 95.685246 40.288525c52.039344 52.039344 52.039344 139.331148 0 191.370491L404.563934 731.908197z m-95.685245-357.560656c-16.786885 0-35.252459 6.714754-48.681968 20.144262-26.859016 26.859016-26.859016 70.504918 0 97.363935l144.367213 146.045901 144.367214-146.045901c26.859016-26.859016 26.859016-70.504918 0-97.363935-26.859016-26.859016-70.504918-26.859016-97.363935 0l-47.003279 47.003279-47.003278-47.003279c-13.429508-13.429508-30.216393-20.144262-48.681967-20.144262z" fill="#232323" p-id="6126"></path><path d="M760.445902 344.131148h476.747541v65.468852H760.445902z" fill="#36C9A3" p-id="6127"></path><path d="M760.445902 481.783607h65.468852v65.468852h-65.468852z" fill="#FFFFFF" p-id="6128"></path><path d="M896.419672 481.783607h438.137705v65.468852H896.419672z" fill="#FA004B" p-id="6129"></path><path d="M760.445902 617.757377h166.190164v65.468853h-166.190164z" fill="#36C9A3" p-id="6130"></path><path d="M997.140984 617.757377h70.504918v67.147541h-70.504918z" fill="#232323" p-id="6131"></path><path d="M1097.862295 617.757377h70.504918v65.468853h-70.504918z" fill="#FFFFFF" p-id="6132"></path><path d="M1203.619672 617.757377h65.468853v65.468853h-65.468853z" fill="#232323" p-id="6133"></path><path d="M1792.839344 67.147541V1.678689H0V1024h1792.839344v-67.147541H1500.747541l68.826229-68.826229h28.537705V822.557377H65.468852V203.121311h1530.963935V137.652459h-26.859017L1500.747541 67.147541h292.091803z m-1376.52459 0h177.940984l68.826229 70.504918H486.819672L416.314754 67.147541z m-23.501639 70.504918H214.872131L146.045902 67.147541h177.940983l68.82623 70.504918zM688.262295 67.147541h177.940984l68.826229 70.504918H757.088525L688.262295 67.147541z m270.268853 0h177.940983l68.82623 70.504918H1027.357377L958.531148 67.147541z m-92.327869 889.704918H688.262295l68.82623-68.826229h177.940983L866.203279 956.852459z m161.154098-68.826229h177.940984L1136.472131 956.852459H958.531148l68.826229-68.826229zM594.255738 956.852459H416.314754l68.82623-68.826229h177.940983L594.255738 956.852459z m-270.268853 0H146.045902l68.826229-68.826229h177.940984L323.986885 956.852459z m1082.754099 0H1228.8l68.82623-68.826229h177.940983L1406.740984 956.852459zM120.865574 888.02623l-55.396722 55.396721v-55.396721h55.396722zM65.468852 80.577049l57.07541 57.07541H65.468852V80.577049zM1477.245902 137.652459H1299.304918L1228.8 67.147541h177.940984L1477.245902 137.652459z" fill="#232323" p-id="6134"></path></svg>